<svg xmlns="http://www.w3.org/2000/svg" width="240.797" height="157.698" viewBox="0 0 240.797 157.698">
  <g id="Group_20" data-name="Group 20" transform="translate(2619.229 1745.55)">
    <path id="Path_243" data-name="Path 243" d="M139.328,91.084a17.235,17.235,0,0,1-16.5-12.409l-.029-.087-8.14-30.432L107.473,74.91a13.516,13.516,0,0,1-25.951-7.569l11.828-44.2A12.122,12.122,0,0,1,114,18.12l2.459-9.157a12.087,12.087,0,0,1,23.347,0l16.1,60.129a17.218,17.218,0,0,1-11.732,21.295,17.312,17.312,0,0,1-4.84.7Zm-8.392-14.723a8.783,8.783,0,0,0,16.852-4.956l-.029-.087L131.652,11.141a3.645,3.645,0,0,0-7.047,0L119.04,31.865l11.906,44.5Zm-25.912-53.75a3.508,3.508,0,0,0-3.523,2.71L89.634,69.664a5.087,5.087,0,0,0,9.747,2.914l10.928-40.7-1.752-6.553a3.533,3.533,0,0,0-3.523-2.71Z" transform="translate(-2621.824 -1745.56)" fill="#e82727"/>
    <g id="Group_13" data-name="Group 13" transform="translate(-2619.229 -1645.338)">
      <path id="Path_244" data-name="Path 244" d="M17.975,112.92a17.426,17.426,0,0,0-12.709,5.324A17.329,17.329,0,0,0,0,130.895v.958a17.409,17.409,0,0,0,5.314,12.758,18.449,18.449,0,0,0,12.661,4.743,18.608,18.608,0,0,0,7.715-1.636,16.5,16.5,0,0,0,4.162-2.691v4.327h6.1V130.9A17.4,17.4,0,0,0,30.684,118.2a17.4,17.4,0,0,0-12.709-5.266Zm11.7,17.975v.958a11.225,11.225,0,0,1-3.475,8.305,11.05,11.05,0,0,1-8.228,3.456,11.458,11.458,0,0,1-8.3-3.407,11.283,11.283,0,0,1-3.465-8.353v-.958a11.044,11.044,0,0,1,3.465-8.237,11.216,11.216,0,0,1,8.3-3.465,11.029,11.029,0,0,1,8.237,3.465,11.05,11.05,0,0,1,3.456,8.228Z" transform="translate(0 -103.841)" fill="#00a1ed"/>
      <path id="Path_245" data-name="Path 245" d="M99.245,112.92A18.078,18.078,0,0,0,81.27,130.895v.958a17.409,17.409,0,0,0,5.314,12.758,19.175,19.175,0,0,0,20.375,3.107,16.5,16.5,0,0,0,4.162-2.691v4.327h6.1V130.9A17.978,17.978,0,0,0,99.245,112.93Zm11.7,17.975v.958a11.225,11.225,0,0,1-3.475,8.305,11.049,11.049,0,0,1-8.228,3.456,11.458,11.458,0,0,1-8.3-3.407,11.283,11.283,0,0,1-3.465-8.353v-.958a11.044,11.044,0,0,1,3.465-8.237,11.216,11.216,0,0,1,8.3-3.465,11.817,11.817,0,0,1,11.693,11.693Z" transform="translate(-2.605 -103.841)" fill="#00a1ed"/>
      <path id="Path_246" data-name="Path 246" d="M140.785,112.92a17.978,17.978,0,0,0-17.975,17.975v30.432h6.1v-16.31a16.239,16.239,0,0,0,4.162,2.691,19.183,19.183,0,0,0,20.424-3.146,17.4,17.4,0,0,0,5.266-12.709v-.958a18.078,18.078,0,0,0-17.975-17.975Zm11.761,17.975v.958a11.251,11.251,0,0,1-3.446,8.334,11.56,11.56,0,0,1-8.315,3.417,11.833,11.833,0,0,1-11.7-11.761v-.958a11.834,11.834,0,0,1,11.7-11.693,11.24,11.24,0,0,1,8.305,3.475,11.05,11.05,0,0,1,3.456,8.228Z" transform="translate(-3.936 -103.841)" fill="#00a1ed"/>
      <path id="Path_247" data-name="Path 247" d="M70.2,117.411a19.107,19.107,0,0,0-3.988-2.788,16.55,16.55,0,0,0-7.715-1.878A17.978,17.978,0,0,0,40.52,130.72v.823A17.409,17.409,0,0,0,45.834,144.3a18.466,18.466,0,0,0,12.661,4.743A18.525,18.525,0,0,0,71.2,144.262a17.4,17.4,0,0,0,5.266-12.709V103.54H70.188v13.871ZM66.742,122.5A11.049,11.049,0,0,1,70.2,130.73v.823a11.283,11.283,0,0,1-3.465,8.353,11.661,11.661,0,0,1-16.533-.058,11.216,11.216,0,0,1-3.465-8.3v-.823a11.044,11.044,0,0,1,3.465-8.237,11.216,11.216,0,0,1,8.3-3.465,11.029,11.029,0,0,1,8.237,3.465Z" transform="translate(-1.299 -103.54)" fill="#00a1ed"/>
      <path id="Path_248" data-name="Path 248" d="M180.59,141.126l-1.868,1.074a8.087,8.087,0,0,1-3.194.784c-3.94,0-5.333-2.139-5.333-8.17V118.66h9.612v-6.069h-9.612V103.55h-6.2v31.274c0,11.77,6.282,14.239,11.548,14.239a12.214,12.214,0,0,0,5.943-1.394l1.6-.832-2.468-5.7Z" transform="translate(-5.256 -103.54)" fill="#00a1ed"/>
      <g id="Group_12" data-name="Group 12" transform="translate(195.555 0.165)">
        <path id="Path_249" data-name="Path 249" d="M208.3,149.01H202.03v-45.3H208.3Z" transform="translate(-202.03 -103.71)" fill="#00a1ed"/>
        <path id="Path_250" data-name="Path 250" d="M247.65,109.992H233.886V149.01H227.6V109.992H213.84V103.71h33.8v6.282Z" transform="translate(-202.409 -103.71)" fill="#00a1ed"/>
      </g>
    </g>
  </g>
</svg>
