<?xml version="1.0" encoding="UTF-8"?> <svg xmlns="http://www.w3.org/2000/svg" id="Layer_2" viewBox="0 0 500 148.21"><g id="Layer_1-2"><path d="m55.5,71.45H22.78v45.18H0V17.08C0,11,4.93,6.07,11.01,6.07h60.97v18.45H22.78v28.55h43.73v7.36c0,6.08-4.93,11.01-11.01,11.01Z" fill="#0f2643" stroke-width="0"></path><path d="m184.59,116.63h-22.02V0h11.01c6.08,0,11.01,4.93,11.01,11.01v105.62Z" fill="#0f2643" stroke-width="0"></path><path d="m235.27,100.45c4.05,0,7.34-1.11,9.87-3.34,2.53-2.23,3.85-5.19,3.95-8.88h20.58c-.05,5.57-1.57,10.67-4.56,15.3-2.99,4.63-7.07,8.23-12.26,10.78-5.19,2.56-10.92,3.83-17.2,3.83-11.75,0-21.01-3.73-27.79-11.2-6.78-7.47-10.17-17.78-10.17-30.94v-1.44c0-12.65,3.37-22.75,10.1-30.3,6.73-7.54,15.97-11.31,27.71-11.31,10.28,0,18.51,2.92,24.72,8.77,6.2,5.85,9.35,13.63,9.45,23.35h-20.58c-.1-4.27-1.42-7.75-3.95-10.42-2.53-2.67-5.87-4.01-10.02-4.01-5.11,0-8.97,1.86-11.58,5.59-2.61,3.73-3.91,9.77-3.91,18.14v2.28c0,8.47,1.29,14.55,3.87,18.25,2.58,3.7,6.5,5.55,11.77,5.55Z" fill="#0f2643" stroke-width="0"></path><path d="m277.22,74.79c0-8.15,1.57-15.41,4.71-21.79,3.14-6.38,7.66-11.31,13.55-14.81,5.9-3.49,12.74-5.24,20.54-5.24,11.09,0,20.13,3.39,27.14,10.17,7.01,6.78,10.92,16,11.73,27.64l.15,5.62c0,12.6-3.52,22.72-10.55,30.33-7.04,7.62-16.48,11.43-28.32,11.43s-21.3-3.8-28.36-11.39c-7.06-7.59-10.59-17.92-10.59-30.98v-.99Zm21.94,1.56c0,7.81,1.47,13.78,4.4,17.91,2.94,4.13,7.14,6.2,12.6,6.2s9.46-2.04,12.45-6.12c2.99-4.08,4.48-10.61,4.48-19.58,0-7.66-1.49-13.59-4.48-17.8-2.99-4.21-7.19-6.31-12.6-6.31s-9.52,2.09-12.45,6.27c-2.94,4.18-4.4,10.66-4.4,19.43Z" fill="#0f2643" stroke-width="0"></path><path d="m499.85,70.77c-.81-11.64-4.72-20.85-11.73-27.64-7.01-6.78-16.06-10.17-27.14-10.17-7.8,0-14.64,1.75-20.54,5.24-5.9,3.49-10.42,8.43-13.55,14.81-3.14,6.38-4.71,13.64-4.71,21.79v73.42h10.93c6.08,0,11.01-4.93,11.01-11.01v-22.39c4.99,2.19,10.64,3.33,17.01,3.33,11.84,0,21.28-3.81,28.32-11.43,7.04-7.62,10.55-17.73,10.55-30.33l-.15-5.62Zm-26.27,23.57c-2.99,4.08-7.14,6.12-12.45,6.12s-9.67-2.07-12.6-6.2c-2.94-4.13-4.4-10.1-4.4-17.91,0-8.77,1.47-15.25,4.4-19.43,2.94-4.18,7.09-6.27,12.45-6.27s9.62,2.1,12.6,6.31c2.99,4.21,4.48,10.14,4.48,17.8,0,8.97-1.49,15.5-4.48,19.58Z" fill="#0f2643" stroke-width="0"></path><path d="m413.16,33.51v21.53c-10.2-2.51-16.57.69-19.8,4.64-2.88,3.54-4.23,7.11-4.39,15.11h-.02v41.83h-21.95v-41.83c0-8.16,1.58-15.43,4.71-21.81,3.13-6.38,7.66-11.32,13.56-14.79,5.9-3.5,12.73-5.24,20.53-5.24,2.56,0,5.01.18,7.36.55Z" fill="#0f2643" stroke-width="0"></path><path d="m104.8,117.99c-8.06-.11-15.33-1.91-20.63-6.58-5.3-4.66-7.95-10.55-7.95-17.65,0-8.72,3.23-15.41,9.7-20.08,6.47-4.66,15.81-7.02,28.03-7.07h10.12v-4.72c0-3.8-.98-6.85-2.93-9.13-1.95-2.28-5.03-3.42-9.24-3.42-3.7,0-6.61.89-8.71,2.66-2.1,1.78-3.16,4.21-3.16,7.3h-21.98c0-4.77,1.47-9.18,4.41-13.24,2.94-4.06,7.1-7.24,12.48-9.55,5.37-2.31,11.41-3.46,18.1-3.46,10.14,0,18.19,2.55,24.15,7.64,5.96,5.1,8.94,12.26,8.94,21.49v25.96c0,15.14-14.69,29.82-29.83,29.83h-11.5Zm4.21-16.39c3.25,0,6.24-.72,8.98-2.17.03-.01.05-.03.08-.04,3.8-2.03,6-6.15,6-10.46v-9.47h-8.21c-11,0-16.86,3.8-17.57,11.41l-.08,1.29c0,2.74.96,5,2.89,6.77,1.93,1.78,4.56,2.66,7.91,2.66Z" fill="#0f2643" stroke-width="0"></path></g></svg> 