<svg xmlns="http://www.w3.org/2000/svg" viewBox="0 0 126.27 59.83"><defs><style>.cls-1{font-size:4.61px;}.cls-1,.cls-3,.cls-4{fill:#061215;font-family:Roboto-Medium, Roboto;font-weight:500;}.cls-2{letter-spacing:-0.01em;}.cls-3{font-size:3.17px;}.cls-4{font-size:23.56px;}.cls-5{fill:#a2d896;}.cls-6{fill:#94b38d;}.cls-7{fill:#779e6e;}.cls-8{fill:#beedb3;}.cls-9{fill:#2d5823;}.cls-10{fill:#a9e89b;}.cls-11{fill:#a5d83f;}.cls-12{fill:#478b37;}.cls-13{fill:#98e386;}.cls-14{fill:#c3e5bb;}.cls-15{fill:#9fba98;}.cls-16{fill:#7ea375;}.cls-17{fill:#becbbb;}</style></defs><g id="Layer_2" data-name="Layer 2"><g id="Brand_Manual" data-name="Brand Manual"><text class="cls-1" transform="translate(53.23 46.37)">G<tspan class="cls-2" x="3.14" y="0">ov</tspan><tspan x="7.98" y="0">an Mbeki Housing Company </tspan></text><text class="cls-3" transform="translate(120.2 24.93) rotate(0.03)">®</text><text class="cls-4" transform="translate(51.83 39.86)">GMHC</text><path class="cls-5" d="M19.94,10l10-5V15l-10,5Z"/><path class="cls-6" d="M19.94,29.91l10-5v10l-10,5Z"/><path class="cls-7" d="M19.94,49.85l10-5v10l-10,5Z"/><path class="cls-8" d="M19.82,20l-10-5V25l10,5Z"/><path class="cls-9" d="M19.94,39.88v10l-10-5v-10Z"/><path class="cls-10" d="M10,24.93v10l-10-5v-10Z"/><path class="cls-11" d="M10,44.87l10,5v10l-10-5Z"/><path class="cls-12" d="M0,39.88l10,5v10l-10-5Z"/><path class="cls-13" d="M19.94,39.88v10l-10-5v-10Z"/><path class="cls-14" d="M29.91,15l10-5v10l-10,5Z"/><path class="cls-15" d="M29.91,34.9l10-5v10l-10,5Z"/><path class="cls-16" d="M29.91,44.87l10-5v10l-10,5Z"/><path class="cls-17" d="M10,5l10-5,10,5-10,5Z"/></g></g></svg>